:SAMPLES-PER-SECOND 30
:FULLY-SPECIFIED
:DEGREES
287
root  -30.6807 34.6112 3.33462 -179.555 72.7541 172.021
RightUpLeg  -20.0434 -15.6979 -9.89204
RightLeg  23.6143 -1.15022 -0.4213
RightFoot  6.4021 0.0278895 0.0379473
RightToes  -29.3372 -0.139383 -0.247333
Spine  -0.813617 1.17193 -2.248
Spine1  -1.74453 2.38013 -3.7589
HEad  -41.7509 10.5079 -5.45537
LeftShoulder1  -1.94126e-019 -3.10601e-018 -2.51263e-017
LeftArm  -13.7435 19.0449 -77.2194
LeftForeArm  33.7495 -12.542 -2.06913
LeftHand  -0.431514 -1.74958 7.1957
RightShoulder  -4.96962e-017 0 -2.36833e-017
RightArm  -20.6399 -16.0951 80.7812
RightForeArm  54.8134 19.9508 1.60479
RightHand  -0.404072 -0.228887 -9.26156
LeftUpLeg  -9.56153 9.70955 -7.07754
LeftLeg  5.82025 17.3827 0.638347
LeftFoot  3.79104 -0.0404292 1.35067
LeftToes  -10.8352 1.49739e-006 1.00523e-007
288
root  -30.7464 34.6249 3.48167 -179.993 72.9551 171.714
RightUpLeg  -20.0364 -16.445 -9.5869
RightLeg  26.1873 -2.96159 -1.23221
RightFoot  4.63554 0.0248973 -0.0716914
RightToes  -27.7611 -0.128811 -0.236108
Spine  -0.784907 1.04659 -2.20742
Spine1  -1.68128 2.1369 -3.68622
HEad  -40.9361 8.65046 -5.10879
LeftShoulder1  -1.94126e-019 -3.10601e-018 -2.51263e-017
LeftArm  -14.1141 18.6502 -77.1314
LeftForeArm  33.0621 -13.6786 -2.24254
LeftHand  -0.429064 -1.70713 7.19534
RightShoulder  -4.96962e-017 0 -2.36833e-017
RightArm  -20.8318 -16.2517 80.6558
RightForeArm  54.7629 19.8285 1.5834
RightHand  -0.400454 -0.271137 -9.27824
LeftUpLeg  -9.33977 9.85242 -6.9581
LeftLeg  5.27395 17.4741 0.477475
LeftFoot  4.33049 -0.0524334 1.52529
LeftToes  -11.2309 1.49739e-006 1.00523e-007
289
root  -30.8051 34.6189 3.64788 178.963 73.2975 170.756
RightUpLeg  -19.7804 -16.7376 -9.47353
RightLeg  28.2066 -4.00557 -1.83281
RightFoot  3.14437 0.0161399 -0.0449976
RightToes  -26.2143 -0.11874 -0.224813
Spine  -0.751931 1.03055 -2.21076
Spine1  -1.61379 2.10917 -3.69867
HEad  -40.3138 6.96426 -4.88855
LeftShoulder1  -1.94126e-019 -3.10601e-018 -2.51263e-017
LeftArm  -13.8704 18.4664 -77.0459
LeftForeArm  32.7116 -15.2019 -2.45987
LeftHand  -0.438818 -1.74995 7.31423
RightShoulder  -4.96962e-017 0 -2.36833e-017
RightArm  -21.273 -16.722 80.429
RightForeArm  54.4646 19.8257 1.59373
RightHand  -0.400838 -0.369856 -9.27988
LeftUpLeg  -9.18564 10.3088 -6.9854
LeftLeg  4.82545 17.4094 0.341561
LeftFoot  4.80347 -0.0631409 1.66689
LeftToes  -11.9306 1.49739e-006 1.00523e-007
290
root  -30.8347 34.6076 3.83786 177.736 73.7351 169.505
RightUpLeg  -19.099 -16.3615 -9.42187
RightLeg  29.0549 -4.34391 -2.06537
RightFoot  2.23324 0.00942199 0.0133271
RightToes  -25.4168 -0.113667 -0.218884
Spine  -0.762884 0.962739 -2.17881
Spine1  -1.63233 1.9745 -3.63594
HEad  -39.9296 6.01948 -4.88743
LeftShoulder1  -1.94126e-019 -3.10601e-018 -2.51263e-017
LeftArm  -13.1451 18.7171 -76.9407
LeftForeArm  31.9999 -16.7939 -2.65283
LeftHand  -0.432587 -1.7375 7.22446
RightShoulder  -4.96962e-017 0 -2.36833e-017
RightArm  -21.6209 -17.171 80.142
RightForeArm  54.42 19.3928 1.51472
RightHand  -0.406212 -0.37797 -9.41886
LeftUpLeg  -9.08332 10.7739 -7.0239
LeftLeg  4.37999 17.3917 0.208104
LeftFoot  5.29971 -0.0767533 1.81985
LeftToes  -12.7532 1.49739e-006 1.00523e-007
291
root  -30.8455 34.5879 4.05383 176.046 74.3556 167.728
RightUpLeg  -18.0307 -15.5145 -9.34605
RightLeg  28.5825 -4.40978 -2.05174
RightFoot  2.06695 0.00746744 0.0255601
RightToes  -26.9325 -0.123378 -0.230091
Spine  -0.810156 0.959419 -2.16066
Spine1  -1.72679 1.96974 -3.60389
HEad  -39.757 5.55304 -5.07366
LeftShoulder1  -1.94126e-019 -3.10601e-018 -2.51263e-017
LeftArm  -11.8934 19.2301 -76.8245
LeftForeArm  31.089 -18.2903 -2.82079
LeftHand  -0.42652 -1.5378 7.31526
RightShoulder  -4.96962e-017 0 -2.36833e-017
RightArm  -22.1571 -17.604 79.8698
RightForeArm  54.5091 18.4155 1.33096
RightHand  -0.400227 -0.472368 -9.44866
LeftUpLeg  -8.91965 11.3287 -7.10617
LeftLeg  3.75419 17.4654 0.0212145
LeftFoot  5.89754 -0.0954482 2.01437
LeftToes  -13.8194 1.49739e-006 1.00523e-007
292
root  -30.8334 34.5568 4.29194 173.72 75.0042 165.274
RightUpLeg  -16.4724 -15.0087 -9.24879
RightLeg  26.387 -5.41576 -2.26677
RightFoot  0.649552 -0.000778219 0.143402
RightToes  -30.4467 -0.147009 -0.255059
Spine  -0.863216 0.922686 -2.16486
Spine1  -1.83536 1.90107 -3.6197
HEad  -39.8803 5.69537 -5.41492
LeftShoulder1  -1.94126e-019 -3.10601e-018 -2.51263e-017
LeftArm  -11.1589 19.8079 -76.7375
LeftForeArm  30.5598 -19.1539 -2.91084
LeftHand  -0.40897 -1.50057 7.0557
RightShoulder  -4.96962e-017 0 -2.36833e-017
RightArm  -22.6388 -17.8907 79.747
RightForeArm  54.6404 17.0407 1.09077
RightHand  -0.317263 -1.56236 -9.47996
LeftUpLeg  -8.63717 11.7617 -7.25639
LeftLeg  2.9111 17.7262 -0.235066
LeftFoot  6.63649 -0.122782 2.27902
LeftToes  -15.118 1.49739e-006 1.00523e-007
293
root  -30.8044 34.5258 4.58297 172.387 75.6751 163.847
RightUpLeg  -14.639 -15.2795 -8.66255
RightLeg  22.4131 -6.05579 -2.05095
RightFoot  -1.1175 -0.0139439 0.340982
RightToes  -28.1504 -0.131394 -0.238908
Spine  -0.911185 0.907851 -2.06527
Spine1  -1.94634 1.89073 -3.45426
HEad  -40.3961 6.09533 -5.69533
LeftShoulder1  -1.94126e-019 -3.10601e-018 -2.51263e-017
LeftArm  -10.5914 20.2951 -76.817
LeftForeArm  30.6079 -19.2216 -2.90812
LeftHand  -0.413565 -1.48971 7.14367
RightShoulder  -4.96962e-017 0 -2.36833e-017
RightArm  -24.087 -18.45 79.4124
RightForeArm  55.4465 15.9851 1.05039
RightHand  -0.384469 -0.770015 -9.62942
LeftUpLeg  -8.77818 12.4109 -7.01027
LeftLeg  2.97247 17.7178 -0.216287
LeftFoot  6.97386 -0.135365 2.3828
LeftToes  -16.6085 1.49739e-006 1.00523e-007
